<svg width="133" height="94" viewBox="0 0 133 94" fill="none" xmlns="http://www.w3.org/2000/svg">
<path fill-rule="evenodd" clip-rule="evenodd" d="M0.667969 47.0002C0.667969 43.8454 0.98102 40.7637 1.57775 37.7845H131.358C131.955 40.7637 132.268 43.8454 132.268 47.0002C132.268 72.7734 111.375 93.6668 85.6013 93.6668H47.3346C21.5613 93.6668 0.667969 72.7734 0.667969 47.0002ZM123.026 19.1179H9.90977C18.4181 7.71611 32.0142 0.333496 47.3346 0.333496H85.6013C100.922 0.333496 114.518 7.71611 123.026 19.1179ZM22.1358 53.9977C18.2698 53.9977 15.1358 57.1317 15.1358 60.9976V71.4977C15.1358 75.3637 18.2698 78.4977 22.1358 78.4977C26.0018 78.4977 29.1358 75.3637 29.1358 71.4977V60.9976C29.1358 57.1317 26.0018 53.9977 22.1358 53.9977ZM37.3032 52.2495C37.3032 48.3835 40.4372 45.2495 44.3032 45.2495C48.1692 45.2495 51.3032 48.3835 51.3032 52.2495V80.2495C51.3032 84.1155 48.1692 87.2495 44.3032 87.2495C40.4372 87.2495 37.3032 84.1155 37.3032 80.2495V52.2495ZM66.4679 53.9976C62.6019 53.9976 59.4679 57.1316 59.4679 60.9976V71.4976C59.4679 75.3636 62.6019 78.4976 66.4679 78.4976C70.3338 78.4976 73.4678 75.3636 73.4678 71.4976V60.9976C73.4678 57.1316 70.3338 53.9976 66.4679 53.9976ZM81.6358 52.2495C81.6358 48.3835 84.7698 45.2495 88.6358 45.2495C92.5018 45.2495 95.6358 48.3835 95.6358 52.2495V80.2495C95.6358 84.1155 92.5018 87.2495 88.6358 87.2495C84.7698 87.2495 81.6358 84.1155 81.6358 80.2495V52.2495ZM110.796 53.9976C106.93 53.9976 103.796 57.1316 103.796 60.9976V71.4976C103.796 75.3636 106.93 78.4976 110.796 78.4976C114.662 78.4976 117.796 75.3636 117.796 71.4976V60.9976C117.796 57.1316 114.662 53.9976 110.796 53.9976Z" fill="#E266ED"/>
</svg>
